<svg width="161" height="50" viewBox="0 0 161 50" fill="none" xmlns="http://www.w3.org/2000/svg">
<g id="TCL_Full_Logo_Blue_Color 2">
<path id="Vector" d="M46.557 3.77917H25.6587L21.147 8.29168H8.62788V20.6933L4.11621 25.205V46.2208H25.0137L29.5254 41.7083H42.0445V29.3067L46.557 24.795V3.77917ZM39.867 39.5292H10.8054V10.4692H39.867V39.5292Z" fill="#093BAA"/>
<path id="Vector_2" d="M36.5583 21.5633C36.5016 21.62 36.4416 21.6833 36.3791 21.7425C35.3586 22.7664 34.335 23.7869 33.3083 24.8042C33.2238 24.8952 33.1087 24.9519 32.985 24.9633C30.485 24.9717 27.9783 24.9692 25.4733 24.9692C25.4269 24.9655 25.3807 24.9593 25.335 24.9508C25.335 23.655 25.335 22.3858 25.3416 21.1175C25.3416 19.8758 25.335 18.6333 25.3475 17.3883C25.3533 17.2479 25.4071 17.1138 25.5 17.0083C26.5208 15.9733 27.5533 14.9467 28.5833 13.92C28.6341 13.8692 28.6908 13.8208 28.7566 13.7617C31.3483 16.3558 33.9366 18.9417 36.5583 21.5633Z" fill="#0EDDBA"/>
<path id="Vector_3" d="M25.3333 32.565C25.3375 32.6505 25.3228 32.736 25.2902 32.8152C25.2577 32.8944 25.2081 32.9655 25.1449 33.0233C24.1366 34.0233 23.1366 35.0233 22.1341 36.0283C22.0683 36.0908 22.0058 36.1567 21.9249 36.235C19.3208 33.6308 16.7291 31.0392 14.1133 28.42C15.1308 27.4025 16.1424 26.4125 17.1274 25.3917C17.3999 25.11 17.6716 25.0083 18.0608 25.0117C20.3716 25.0292 22.6816 25.02 24.9924 25.0175C25.1001 25.0091 25.2071 24.9929 25.3124 24.9692C25.3216 25.125 25.3274 25.2117 25.3274 25.3025C25.3333 27.7233 25.3333 30.1442 25.3333 32.565Z" fill="#0EDDBA"/>
<path id="Vector_4" d="M58.279 10.0642H53.7148V8.35834H64.7982V10.0642H60.2315V22.75H58.279V10.0642Z" fill="#093BAA"/>
<path id="Vector_5" d="M66.6045 8.35834H68.5578V22.75H66.6045V8.35834Z" fill="#093BAA"/>
<path id="Vector_6" d="M71.3945 8.35834H73.2029L78.2029 17.5883L83.0704 8.35834H84.8795V22.75H82.9679V12.0175L79.1854 19.0892C79.0187 19.3908 78.867 19.6033 78.7229 19.7258C78.5845 19.8467 78.4066 19.9125 78.2229 19.9108H77.667L73.3295 12.0175V22.75H71.3945V8.35834Z" fill="#093BAA"/>
<path id="Vector_7" d="M87.9314 22.3333C87.6498 22.06 87.5092 21.6833 87.5098 21.2033V8.35834H97.6031V10.0642H89.4623V14.5458H96.9864V16.2317H89.4623V21.0417H97.6031V22.75H89.0723C88.5923 22.75 88.212 22.6111 87.9314 22.3333Z" fill="#093BAA"/>
<path id="Vector_8" d="M101.406 22.255C100.665 21.8149 100.068 21.1682 99.6897 20.3942C99.2852 19.5925 99.083 18.6642 99.083 17.6092V13.5C99.083 12.4444 99.2886 11.5158 99.6997 10.7142C100.086 9.93866 100.69 9.29237 101.437 8.85416C102.184 8.41582 103.051 8.19666 104.037 8.19666H106.216C107.148 8.19666 107.974 8.3986 108.693 8.80249C109.401 9.1947 109.98 9.78376 110.36 10.4983C110.749 11.225 110.943 12.0611 110.943 13.0067H109.031C109.031 12.0883 108.774 11.3483 108.26 10.7867C107.746 10.225 107.064 9.94388 106.215 9.94332H104.036C103.147 9.94332 102.424 10.2722 101.869 10.93C101.313 11.5878 101.036 12.458 101.036 13.5408V17.57C101.036 18.6533 101.302 19.5236 101.836 20.1808C102.37 20.838 103.076 21.1667 103.955 21.1667H106.176C107.052 21.1667 107.754 20.855 108.282 20.2317C108.81 19.6083 109.074 18.7894 109.074 17.775H110.986C110.986 18.7889 110.787 19.6864 110.389 20.4675C110.016 21.2225 109.43 21.8515 108.704 22.2767C107.977 22.7017 107.134 22.9142 106.176 22.9142H103.955C102.996 22.9158 102.146 22.6961 101.406 22.255Z" fill="#093BAA"/>
<path id="Vector_9" d="M112.833 8.35834H114.786V14.6483H122.31V8.35834H124.283V22.75H122.31V16.375H114.786V22.75H112.833V8.35834Z" fill="#093BAA"/>
<path id="Vector_10" d="M135.16 18.9658H129.16L127.76 22.75H125.725L131.295 8.35999H132.179C132.768 8.35999 133.185 8.68193 133.429 9.32582L138.593 22.75H136.583L135.16 18.9658ZM129.733 17.3208H134.583L132.177 10.825H132.157L129.733 17.3208Z" fill="#093BAA"/>
<path id="Vector_11" d="M140.237 8.35834H142.19V22.75H140.237V8.35834Z" fill="#093BAA"/>
<path id="Vector_12" d="M145.027 8.35834H146.834L154.439 19.6033V8.35834H156.351V22.75H154.563L146.936 11.5467V22.75H145.024L145.027 8.35834Z" fill="#093BAA"/>
<path id="Vector_13" d="M58.0242 41.2308C57.7431 40.9569 57.6025 40.5869 57.6025 40.1208V27.25H59.5559V39.9167H67.3667V41.6417H59.1667C58.6856 41.6417 58.3048 41.5047 58.0242 41.2308Z" fill="#093BAA"/>
<path id="Vector_14" d="M78.0995 37.8592H72.0995L70.6987 41.6417H68.667L74.2345 27.25H75.1187C75.7081 27.25 76.1262 27.5722 76.3728 28.2167L81.5328 41.6417H79.5178L78.0995 37.8592ZM72.672 36.215H77.5237L75.1187 29.7192H75.0978L72.672 36.215Z" fill="#093BAA"/>
<path id="Vector_15" d="M83.2793 41.22C82.9915 40.9422 82.8477 40.5689 82.8477 40.1V27.25H89.2818C90.5285 27.25 91.5324 27.5481 92.2935 28.1442C93.0546 28.7403 93.4349 29.5319 93.4343 30.5192V31.5875C93.4364 32.0742 93.32 32.5541 93.0952 32.9858C92.8743 33.4189 92.545 33.7872 92.1393 34.055V34.075C92.7699 34.2488 93.3283 34.62 93.7327 35.1342C94.1339 35.6389 94.3483 36.2669 94.3393 36.9117V37.9417C94.3393 39.065 93.9657 39.9625 93.2185 40.6342C92.4713 41.3058 91.4607 41.6417 90.1868 41.6417H84.4102C83.9446 41.6417 83.5677 41.5011 83.2793 41.22ZM89.5702 33.5625C90.1452 33.5625 90.6077 33.3811 90.9577 33.0183C91.3077 32.6556 91.4824 32.1725 91.4818 31.5692V30.6233C91.4862 30.389 91.4321 30.1572 91.3244 29.949C91.2168 29.7408 91.0589 29.5627 90.8652 29.4308C90.4535 29.1297 89.919 28.9792 89.2618 28.9792H84.801V33.5625H89.5702ZM89.981 39.915C90.721 39.915 91.3068 39.73 91.7385 39.36C92.1702 38.99 92.386 38.4967 92.386 37.88V36.9167C92.3931 36.6825 92.3469 36.4497 92.2507 36.236C92.1545 36.0223 92.011 35.8333 91.831 35.6833C91.461 35.3683 90.9746 35.2108 90.3718 35.2108H84.801V39.9167L89.981 39.915Z" fill="#093BAA"/>
<path id="Vector_16" d="M96.9288 40.6142C96.1338 39.8192 95.7363 38.75 95.7363 37.4067H97.648C97.648 38.2156 97.8774 38.8597 98.3363 39.3392C98.7952 39.8186 99.4016 40.0586 100.155 40.0592H102.438C103.191 40.0592 103.794 39.8981 104.246 39.5758C104.699 39.2536 104.925 38.8253 104.925 38.2908V37.1808C104.928 36.9781 104.887 36.7771 104.803 36.5923C104.72 36.4075 104.596 36.2434 104.442 36.1117C104.12 35.8239 103.664 35.6322 103.075 35.5367L99.333 34.9167C98.2363 34.7383 97.3899 34.3614 96.7938 33.7858C96.1977 33.2103 95.8997 32.4908 95.8997 31.6275V30.5C95.8997 29.4722 96.2938 28.6464 97.0822 28.0225C97.8705 27.3986 98.9086 27.0869 100.196 27.0875H102.519C103.328 27.0875 104.044 27.2542 104.667 27.5875C105.277 27.9101 105.78 28.4021 106.116 29.0042C106.459 29.6153 106.63 30.3178 106.63 31.1117H104.698C104.698 30.4267 104.499 29.875 104.102 29.4567C103.705 29.0383 103.177 28.8294 102.519 28.83H100.196C99.4974 28.83 98.9322 28.9842 98.5005 29.2925C98.2947 29.4315 98.1274 29.6203 98.0141 29.8413C97.9009 30.0623 97.8455 30.3084 97.853 30.5567V31.4817C97.8475 31.6858 97.886 31.8886 97.9658 32.0766C98.0456 32.2645 98.1648 32.433 98.3155 32.5708C98.6238 32.8592 99.0658 33.0581 99.6413 33.1675L103.341 33.805C104.479 33.9967 105.353 34.37 105.962 34.925C106.257 35.1847 106.492 35.5057 106.65 35.8655C106.809 36.2253 106.887 36.6153 106.879 37.0083V38.3417C106.879 39.3833 106.478 40.2194 105.676 40.85C104.875 41.4806 103.809 41.7956 102.48 41.795H100.115C98.7861 41.8022 97.7238 41.4086 96.9288 40.6142Z" fill="#093BAA"/>
</g>
</svg>
