<svg height="25px" xmlns="http://www.w3.org/2000/svg" viewBox="0 0 192.2 16.19"><path d="M127.61,3.44a5.64,5.64,0,0,0-2.1-1.36,7.37,7.37,0,0,0-5.07,0,5.89,5.89,0,0,0-2.12,1.36,6.57,6.57,0,0,0-1.45,2.23,8.35,8.35,0,0,0-.53,3.08,8.4,8.4,0,0,0,.53,3.09,6.53,6.53,0,0,0,1.43,2.24,5.89,5.89,0,0,0,2.11,1.34,7.35,7.35,0,0,0,5.12,0,5.85,5.85,0,0,0,2.1-1.34,6.37,6.37,0,0,0,1.42-2.24,8.41,8.41,0,0,0,.52-3.09A8.35,8.35,0,0,0,129,5.67,6.68,6.68,0,0,0,127.61,3.44Zm-.91,7.35a4.46,4.46,0,0,1-.8,1.55,3.64,3.64,0,0,1-1.27,1,4,4,0,0,1-1.67.35,4,4,0,0,1-1.7-.35,3.64,3.64,0,0,1-1.27-1,4.44,4.44,0,0,1-.79-1.55,6.85,6.85,0,0,1-.28-2,6.78,6.78,0,0,1,.28-2A4.63,4.63,0,0,1,120,5.17a3.53,3.53,0,0,1,1.27-1,3.89,3.89,0,0,1,1.7-.36,3.82,3.82,0,0,1,1.67.36,3.5,3.5,0,0,1,1.27,1,4.55,4.55,0,0,1,.8,1.55,7.2,7.2,0,0,1,.27,2A7.2,7.2,0,0,1,126.7,10.79Zm14-1v5.79h-2.38V10.17a8.07,8.07,0,0,0-.11-1.41,2.46,2.46,0,0,0-.35-.94,1.4,1.4,0,0,0-.67-.53,2.67,2.67,0,0,0-1-.17,7.78,7.78,0,0,0-.94.06l-.73.1v8.3h-2.38v-10a17.09,17.09,0,0,1,1.79-.37,15.26,15.26,0,0,1,2.44-.18,5.64,5.64,0,0,1,2.11.35,3.38,3.38,0,0,1,1.35,1,3.59,3.59,0,0,1,.7,1.5A8.16,8.16,0,0,1,140.67,9.79ZM20.55,3a.6.6,0,0,1-.18-.43A.61.61,0,0,1,21,2h7.55a.62.62,0,0,1,.43.18.63.63,0,0,1,0,.89,7.16,7.16,0,0,0-1.21,1.53,1.24,1.24,0,0,1-1.07.62H22.75a1.12,1.12,0,0,1-.95-.56h0a8,8,0,0,0-.67-1h0A8.37,8.37,0,0,0,20.55,3ZM34.8,6.53h0a.54.54,0,0,0-.54-.37,3.17,3.17,0,0,0-1.32.32,2,2,0,0,0-.6.49,2.37,2.37,0,0,0-.37.61,1.4,1.4,0,0,0-.07.67,4.08,4.08,0,0,1-.25,2,3.27,3.27,0,0,1-3.23,2.05H21.09a3.27,3.27,0,0,1-3.23-2.05,4.14,4.14,0,0,1-.25-2.06,1.2,1.2,0,0,0-.07-.65,2.3,2.3,0,0,0-2.23-1.4.62.62,0,0,0-.62.42,7.33,7.33,0,0,0,.19,4.89,6.36,6.36,0,0,0,6.21,4.06h7.33a6.35,6.35,0,0,0,6.2-4.06A7.35,7.35,0,0,0,34.8,6.53Z" fill="#fbba00"></path><path d="M96,6.15a3.12,3.12,0,0,0-1.29-.82,5.75,5.75,0,0,0-2-.3,10,10,0,0,0-1.85.16,9.73,9.73,0,0,0-1.32.31l.3,1.93A7.39,7.39,0,0,1,91,7.16,8.93,8.93,0,0,1,92.53,7a2.71,2.71,0,0,1,1,.16,1.54,1.54,0,0,1,1,1.1,2.9,2.9,0,0,1,.1.79v.39a9.09,9.09,0,0,0-.92-.17,8.19,8.19,0,0,0-.83-.05,7.74,7.74,0,0,0-1.62.17,4.1,4.1,0,0,0-1.37.55A2.81,2.81,0,0,0,89,11a3,3,0,0,0-.34,1.49,3.62,3.62,0,0,0,.3,1.56,2.74,2.74,0,0,0,.85,1,3.64,3.64,0,0,0,1.31.57,7.42,7.42,0,0,0,1.69.18,17.18,17.18,0,0,0,2.51-.17c.74-.11,1.3-.21,1.67-.28V9.11a6.26,6.26,0,0,0-.21-1.67A3.22,3.22,0,0,0,96,6.15Zm-1.41,7.64a8.72,8.72,0,0,1-1.67.12,2.74,2.74,0,0,1-1.44-.33A1.25,1.25,0,0,1,91,12.41a1.25,1.25,0,0,1,.2-.72,1.32,1.32,0,0,1,.52-.44,2.39,2.39,0,0,1,.73-.21,5.35,5.35,0,0,1,.79-.06,5.21,5.21,0,0,1,.83.06,3.38,3.38,0,0,1,.57.11Zm11.06-.41.4,1.89a8.46,8.46,0,0,1-1.08.36,5.75,5.75,0,0,1-1.58.19,4.92,4.92,0,0,1-1.84-.3,2.7,2.7,0,0,1-1.17-.85,3.46,3.46,0,0,1-.61-1.36,8.31,8.31,0,0,1-.18-1.82V2.57L102,2.18V5.29h3.66v2H102v4.19a3,3,0,0,0,.4,1.77,1.57,1.57,0,0,0,1.34.53,4.07,4.07,0,0,0,1.15-.14A6.9,6.9,0,0,0,105.69,13.38Zm72-8.09h2.39V15.58h-2.39ZM73.55,1.94h2.56q-.69,3.7-1.53,7.12c-.57,2.27-1.19,4.45-1.89,6.52H70.3c-1-2.65-2-5.54-3-8.68-.48,1.59-1,3.1-1.48,4.53s-1,2.81-1.49,4.15H62c-.71-2.07-1.34-4.25-1.9-6.52s-1.06-4.65-1.52-7.12h2.66c.16.89.32,1.81.5,2.74s.36,1.84.55,2.74.39,1.77.58,2.61.4,1.62.59,2.32c.25-.67.51-1.37.76-2.11S64.74,8.74,65,8s.49-1.53.72-2.29.44-1.49.64-2.2h2.12c.21.71.44,1.44.67,2.21s.49,1.54.74,2.3.51,1.53.77,2.27.5,1.44.74,2.09c.19-.7.38-1.48.57-2.31s.36-1.7.55-2.6.36-1.81.54-2.74S73.39,2.85,73.55,1.94ZM86.38,7.87a8.71,8.71,0,0,1,.2,1.92v5.79H84.2V10.17a8.07,8.07,0,0,0-.11-1.41,2.46,2.46,0,0,0-.35-.94,1.42,1.42,0,0,0-.66-.53,2.61,2.61,0,0,0-1-.17,4.61,4.61,0,0,0-1,.1,6.32,6.32,0,0,0-.73.17v8.19H78V.7L80.36.31v5.1a5.81,5.81,0,0,1,.92-.24,5.21,5.21,0,0,1,1-.1,5.33,5.33,0,0,1,2.06.35,3.31,3.31,0,0,1,1.31,1A3.88,3.88,0,0,1,86.38,7.87ZM191.65,9.79v5.79h-2.38V10.17a8.07,8.07,0,0,0-.11-1.41,2.46,2.46,0,0,0-.35-.94,1.4,1.4,0,0,0-.67-.53,2.7,2.7,0,0,0-1-.17,7.78,7.78,0,0,0-.94.06l-.73.1v8.3h-2.38v-10a16.56,16.56,0,0,1,1.79-.37,15.26,15.26,0,0,1,2.44-.18,5.64,5.64,0,0,1,2.11.35,3.38,3.38,0,0,1,1.35,1,3.59,3.59,0,0,1,.7,1.5A8.16,8.16,0,0,1,191.65,9.79Zm-11.71-8.6a1.41,1.41,0,0,1,.43,1.09,1.36,1.36,0,0,1-.43,1.06,1.48,1.48,0,0,1-1,.39,1.52,1.52,0,0,1-1-.39,1.36,1.36,0,0,1-.43-1.06,1.41,1.41,0,0,1,.43-1.09,1.52,1.52,0,0,1,1-.39A1.48,1.48,0,0,1,179.94,1.19Zm-5.94,5a3.12,3.12,0,0,0-1.29-.82,5.69,5.69,0,0,0-2-.3,9.81,9.81,0,0,0-1.85.16,9.37,9.37,0,0,0-1.32.31l.29,1.93A7.71,7.71,0,0,1,169,7.16,8.93,8.93,0,0,1,170.49,7a2.64,2.64,0,0,1,1,.16,1.53,1.53,0,0,1,.65.44,1.62,1.62,0,0,1,.35.66,3.35,3.35,0,0,1,.1.79v.39a9.26,9.26,0,0,0-.93-.17,8,8,0,0,0-.83-.05,7.81,7.81,0,0,0-1.62.17,4.19,4.19,0,0,0-1.37.55,2.88,2.88,0,0,0-.93,1,3,3,0,0,0-.35,1.49,3.47,3.47,0,0,0,.31,1.56,2.63,2.63,0,0,0,.84,1,3.72,3.72,0,0,0,1.31.57,7.51,7.51,0,0,0,1.7.18,17.18,17.18,0,0,0,2.51-.17c.74-.11,1.29-.21,1.66-.28V9.11a6.26,6.26,0,0,0-.21-1.67A3.1,3.1,0,0,0,174,6.15Zm-1.4,7.64a8.77,8.77,0,0,1-1.68.12,2.68,2.68,0,0,1-1.43-.33,1.23,1.23,0,0,1-.53-1.17,1.25,1.25,0,0,1,.19-.72,1.39,1.39,0,0,1,.52-.44,2.39,2.39,0,0,1,.73-.21,5.49,5.49,0,0,1,.8-.06A5.31,5.31,0,0,1,172,11a3.85,3.85,0,0,1,.57.11Zm-19.29-.88.67,2a3.44,3.44,0,0,1-.64.32q-.41.15-1,.3a9.11,9.11,0,0,1-1.24.24,11.38,11.38,0,0,1-1.47.09,7.68,7.68,0,0,1-2.76-.47A5.6,5.6,0,0,1,144.84,14a6.42,6.42,0,0,1-1.3-2.24,9.38,9.38,0,0,1-.45-3,8.36,8.36,0,0,1,.52-3A6.63,6.63,0,0,1,145,3.49a5.87,5.87,0,0,1,2.13-1.39,7,7,0,0,1,2.62-.47,9,9,0,0,1,1.53.12,10.63,10.63,0,0,1,1.2.29,5.61,5.61,0,0,1,.85.33l.47.26-.73,2a5.22,5.22,0,0,0-1.35-.56,6.37,6.37,0,0,0-1.9-.27,4.29,4.29,0,0,0-1.65.31,3.55,3.55,0,0,0-1.33.91A4.34,4.34,0,0,0,146,6.59a6.6,6.6,0,0,0-.32,2.14,7.33,7.33,0,0,0,.25,2,4.4,4.4,0,0,0,.75,1.57,3.52,3.52,0,0,0,1.3,1,4.55,4.55,0,0,0,1.89.36,7.46,7.46,0,0,0,2.15-.26A9.82,9.82,0,0,0,153.31,12.91Zm11-5a8.12,8.12,0,0,1,.21,1.92v5.79h-2.38V10.17a8.07,8.07,0,0,0-.11-1.41,2.46,2.46,0,0,0-.36-.94,1.33,1.33,0,0,0-.66-.53,2.53,2.53,0,0,0-1-.17,4.54,4.54,0,0,0-1,.1,5.84,5.84,0,0,0-.73.17v8.19H156V.7l2.38-.39v5.1a5.67,5.67,0,0,1,.91-.24,5.92,5.92,0,0,1,3.09.25,3.24,3.24,0,0,1,1.31,1A3.74,3.74,0,0,1,164.34,7.87Zm-49.87,3.79a3.51,3.51,0,0,1,.18,1.19,2.53,2.53,0,0,1-1.09,2.23,5.49,5.49,0,0,1-3.12.76,8.57,8.57,0,0,1-2.19-.23,11.63,11.63,0,0,1-1.16-.36l.41-2a12,12,0,0,0,1.27.41,6.7,6.7,0,0,0,1.69.2,3.15,3.15,0,0,0,1.38-.23.81.81,0,0,0,.43-.77,1,1,0,0,0-.46-.85,6.87,6.87,0,0,0-1.53-.73,12.19,12.19,0,0,1-1.19-.5,4.26,4.26,0,0,1-.94-.62,2.71,2.71,0,0,1-.62-.86,3,3,0,0,1-.22-1.23,2.69,2.69,0,0,1,1-2.23A4.46,4.46,0,0,1,111.19,5a8.83,8.83,0,0,1,1.73.17,9.25,9.25,0,0,1,1.24.32l-.44,1.93a5.63,5.63,0,0,0-1-.32A6,6,0,0,0,111.3,7a2.4,2.4,0,0,0-1.18.25.79.79,0,0,0-.45.75,1.11,1.11,0,0,0,.09.46,1,1,0,0,0,.3.36,4.51,4.51,0,0,0,.57.34c.24.11.53.22.87.34a15.08,15.08,0,0,1,1.44.62,3.65,3.65,0,0,1,1,.69A2.32,2.32,0,0,1,114.47,11.66ZM13.6,3.59A1.61,1.61,0,0,1,15.21,2h0A6.36,6.36,0,0,1,21.42,6h0a7.39,7.39,0,0,1,.19,4.89.63.63,0,0,1-.62.42A2.35,2.35,0,0,1,18.77,10a1.21,1.21,0,0,1-.08-.68,4.18,4.18,0,0,0-.25-2,3.29,3.29,0,0,0-3.23-2h0A1.61,1.61,0,0,1,13.6,3.59ZM7.27,15.53h8.05a.62.62,0,0,0,.43-1.06h0a6.64,6.64,0,0,1-.57-.62,7.33,7.33,0,0,1-.68-1h0a1.14,1.14,0,0,0-.95-.56h-.66a.36.36,0,0,1-.36-.36V9.49a1.61,1.61,0,1,0-3.22,0V12a.36.36,0,0,1-.36.36H7.27a3.25,3.25,0,0,1-3.22-2,4.17,4.17,0,0,1,0-3,3.26,3.26,0,0,1,3.22-2A1.61,1.61,0,0,0,7.27,2,6.34,6.34,0,0,0,1.07,6a7.38,7.38,0,0,0,0,5.43A6.35,6.35,0,0,0,7.27,15.53Zm38.3-5a1.59,1.59,0,0,0-2.24.37,3.33,3.33,0,0,1-2.87,1.37H36a1.14,1.14,0,0,0-1,.56h0a7.33,7.33,0,0,1-.68,1,8.37,8.37,0,0,1-.57.62.62.62,0,0,0,.43,1.06h6.24a6.4,6.4,0,0,0,.77,0l.19,0c.24,0,.47-.06.69-.11h0a6.15,6.15,0,0,0,3.81-2.55h0A1.6,1.6,0,0,0,45.57,10.57Zm-17.64.36a.62.62,0,0,0,.62.42A2.35,2.35,0,0,0,30.77,10a1.18,1.18,0,0,0,.08-.67,4.22,4.22,0,0,1,.25-2,3.27,3.27,0,0,1,3.23-2h6.13a4.19,4.19,0,0,1,.5,0l.15,0,.33.06.14,0a2.06,2.06,0,0,1,.35.12l.23.1.11.06a2.81,2.81,0,0,1,.7.53,3.62,3.62,0,0,1,.36.42h0A1.63,1.63,0,0,0,45,7.19a1.61,1.61,0,0,0,1.2-1.93A1.52,1.52,0,0,0,46,4.72,6.39,6.39,0,0,0,40.46,2H34.33a6.4,6.4,0,0,0-.77,0l-.19,0c-.24,0-.47.06-.69.11h0A6.28,6.28,0,0,0,28.12,6,7.4,7.4,0,0,0,27.93,10.93Z" fill="white"></path></svg>